<svg xmlns="http://www.w3.org/2000/svg" viewBox="0 0 350.64 34.91"><defs><style>.cls-1{fill:none;stroke:#000;stroke-miterlimit:10;}.cls-2{font-size:15.23px;font-family:HelveticaLTStd-Bold, Helvetica LT Std;font-weight:700;}</style></defs><title>Asset 2</title><g id="Layer_2" data-name="Layer 2"><g id="Layer_2-2" data-name="Layer 2"><polygon class="cls-1" points="17.82 1.13 22.99 11.61 34.56 13.29 26.19 21.45 28.16 32.98 17.82 27.54 7.47 32.98 9.45 21.45 1.07 13.29 12.64 11.61 17.82 1.13"/><text class="cls-2" transform="translate(13.16 25.05)">T</text><polygon class="cls-1" points="55.3 1.13 60.48 11.61 72.05 13.29 63.67 21.45 65.65 32.98 55.3 27.54 44.96 32.98 46.93 21.45 38.56 13.29 50.13 11.61 55.3 1.13"/><text class="cls-2" transform="translate(49.81 25.05)">A</text><polygon class="cls-1" points="94.4 1.13 99.57 11.61 111.14 13.29 102.77 21.45 104.75 32.98 94.4 27.54 84.05 32.98 86.03 21.45 77.66 13.29 89.22 11.61 94.4 1.13"/><text class="cls-2" transform="translate(88.9 25.05)">R</text><polygon class="cls-1" points="130.95 1.13 136.13 11.61 147.7 13.29 139.33 21.45 141.3 32.98 130.95 27.54 120.61 32.98 122.58 21.45 114.21 13.29 125.78 11.61 130.95 1.13"/><text class="cls-2" transform="translate(125.46 25.05)">A</text><polygon class="cls-1" points="182.74 1.13 187.92 11.61 199.49 13.29 191.11 21.45 193.09 32.98 182.74 27.54 172.4 32.98 174.37 21.45 166 13.29 177.57 11.61 182.74 1.13"/><text class="cls-2" transform="translate(177.24 25.05)">K</text><polygon class="cls-1" points="220.1 1.13 225.28 11.61 236.85 13.29 228.47 21.45 230.45 32.98 220.1 27.54 209.76 32.98 211.73 21.45 203.36 13.29 214.93 11.61 220.1 1.13"/><text class="cls-2" transform="translate(215.02 25.05)">E</text><polygon class="cls-1" points="256.36 1.13 261.54 11.61 273.11 13.29 264.73 21.45 266.71 32.98 256.36 27.54 246.01 32.98 247.99 21.45 239.62 13.29 251.19 11.61 256.36 1.13"/><text class="cls-2" transform="translate(250.86 25.05)">N</text><polygon class="cls-1" points="293.93 1.13 299.11 11.61 310.68 13.29 302.31 21.45 304.28 32.98 293.93 27.54 283.59 32.98 285.56 21.45 277.19 13.29 288.76 11.61 293.93 1.13"/><text class="cls-2" transform="translate(288.43 25.05)">N</text><polygon class="cls-1" points="332.82 2.15 337.99 12.63 349.56 14.31 341.19 22.47 343.17 33.99 332.82 28.55 322.47 33.99 324.45 22.47 316.08 14.31 327.64 12.63 332.82 2.15"/><text class="cls-2" transform="translate(327.74 25.05)">Y</text></g></g></svg>